{"accessors" : [{"bufferView" : 0, "byteOffset" : 0, "componentType" : 5123, "count" : 28113, "type" : "SCALAR", "max" : [8275], "min" : [0]}, {"bufferView" : 1, "byteOffset" : 0, "componentType" : 5126, "count" : 8276, "type" : "VEC3", "max" : [119.20549774169922, 111.12030792236328, 174.2133026123047], "min" : [-119.2760009765625, -32.272117614746094, -150.25160217285156], "name" : "POSITION"}, {"bufferView" : 1, "byteOffset" : 12, "componentType" : 5126, "count" : 8276, "type" : "VEC2", "max" : [0.9999989867210388, 1], "min" : [0, 0.17772901058197021], "name" : "TEXCOORD_0"}, {"bufferView" : 1, "byteOffset" : 20, "componentType" : 5126, "count" : 8276, "type" : "VEC3", "max" : [1.0000044107437134, 1.0000044107437134, 1.0000044107437134], "min" : [-1.0000044107437134, -1.0000044107437134, -1.0000044107437134], "name" : "NORMAL"}], "asset" : {"generator" : "Aspose.3D 24.2.0", "version" : "2.0"}, "buffers" : [{"uri" : "buffer.bin", "byteLength" : 321068}], "bufferViews" : [{"buffer" : 0, "byteOffset" : 0, "byteLength" : 56228, "target" : 34963}, {"buffer" : 0, "byteOffset" : 56232, "byteLength" : 264832, "byteStride" : 32, "target" : 34962}], "meshes" : [{"primitives" : [{"attributes" : {"POSITION" : 1, "TEXCOORD_0" : 2, "NORMAL" : 3}, "indices" : 0, "mode" : 4}], "name" : ""}], "nodes" : [{"mesh" : 0, "name" : "Cylinder"}], "scene" : 0, "scenes" : [{"nodes" : [0]}]}